{
	"asset":{
		"generator":"Khronos glTF Blender I/O v3.5.30",
		"version":"2.0"
	},
	"extensionsUsed":[
		"KHR_materials_emissive_strength"
	],
	"scene":0,
	"scenes":[
		{
			"name":"Scene",
			"nodes":[
				0,
				1,
				2,
				3,
				4,
				5,
				6,
				7,
				8,
				9,
				10,
				11,
				12,
				13,
				14
			]
		}
	],
	"nodes":[
		{
			"mesh":0,
			"name":"body",
			"scale":[
				1.081002116203308,
				1.0105977058410645,
				1.081002116203308
			],
			"translation":[
				0,
				1.47121000289917,
				0
			]
		},
		{
			"mesh":1,
			"name":"eye",
			"rotation":[
				-0.057237058877944946,
				0.24216507375240326,
				0.01431252621114254,
				0.968439519405365
			],
			"scale":[
				0.13270768523216248,
				0.17333292961120605,
				0.05706026032567024
			],
			"translation":[
				0.3127027750015259,
				2.192399024963379,
				0.8240853548049927
			]
		},
		{
			"mesh":2,
			"name":"\u67f1\u4f53",
			"scale":[
				1.6309183835983276,
				1.6309183835983276,
				1.6309183835983276
			]
		},
		{
			"mesh":3,
			"name":"\u7acb\u65b9\u4f53.001",
			"rotation":[
				-0.13769355416297913,
				0,
				0,
				0.9904748797416687
			],
			"scale":[
				0.37820279598236084,
				0.29198557138442993,
				0.11647170782089233
			],
			"translation":[
				0,
				1.7825137376785278,
				0.7684959769248962
			]
		},
		{
			"mesh":4,
			"name":"\u7acb\u65b9\u4f53.002",
			"scale":[
				0.031128283590078354,
				0.06504599004983902,
				0.018446823582053185
			],
			"translation":[
				-0.13486693799495697,
				1.8475894927978516,
				0.8696573972702026
			]
		},
		{
			"mesh":5,
			"name":"\u7acb\u65b9\u4f53.003",
			"rotation":[
				-0.13511361181735992,
				-0.0279275830835104,
				0.003809860209003091,
				0.9904291033744812
			],
			"scale":[
				0.1922319531440735,
				0.19223196804523468,
				0.1922319531440735
			],
			"translation":[
				0.798717737197876,
				1.5766607522964478,
				0.22656014561653137
			]
		},
		{
			"mesh":6,
			"name":"\u7acb\u65b9\u4f53.004",
			"rotation":[
				0.9966790676116943,
				-0.027509091421961784,
				0.07535538822412491,
				0.013994893990457058
			],
			"scale":[
				-0.1922319531440735,
				-0.1922319531440735,
				-0.1922319531440735
			],
			"translation":[
				-0.8302738666534424,
				1.5766607522964478,
				0.22656014561653137
			]
		},
		{
			"mesh":7,
			"name":"\u67f1\u4f53.001",
			"rotation":[
				0.008173337206244469,
				0.037919074296951294,
				0.1901007443666458,
				0.9809979796409607
			],
			"scale":[
				0.03058735467493534,
				1.3237384557724,
				0.03058735467493534
			],
			"translation":[
				-0.9267134070396423,
				2.0983848571777344,
				0.9975982308387756
			]
		},
		{
			"mesh":8,
			"name":"Star",
			"rotation":[
				-0.5872678160667419,
				0.3938484191894531,
				-0.39384835958480835,
				0.5872677564620972
			],
			"scale":[
				0.6789900660514832,
				0.6789900660514832,
				0.6789900660514832
			],
			"translation":[
				-1.4292871952056885,
				3.3590173721313477,
				1.0653990507125854
			]
		},
		{
			"mesh":9,
			"name":"\u5706\u73af",
			"translation":[
				0,
				2.4973487854003906,
				0
			]
		},
		{
			"mesh":10,
			"name":"\u5706\u73af.001",
			"scale":[
				1.6558489799499512,
				1.6558489799499512,
				1.6558489799499512
			],
			"translation":[
				0,
				2.4973487854003906,
				0
			]
		},
		{
			"mesh":11,
			"name":"\u73af\u4f53",
			"rotation":[
				0.5421106815338135,
				0,
				0,
				0.8403071165084839
			],
			"scale":[
				0.15657758712768555,
				0.15657758712768555,
				0.15657758712768555
			],
			"translation":[
				0.004349574446678162,
				2.846083402633667,
				0.7722229957580566
			]
		},
		{
			"camera":0,
			"name":"\u6444\u50cf\u673a",
			"rotation":[
				-0.11724409461021423,
				0.19524641335010529,
				0.02351732738316059,
				0.9734370112419128
			],
			"translation":[
				7.780191421508789,
				5.975236892700195,
				18.580835342407227
			]
		},
		{
			"name":"\u9762\u5149",
			"rotation":[
				-0.3978064954280853,
				-0.3160254657268524,
				0.3160254657268524,
				0.8012526631355286
			],
			"scale":[
				7.17591667175293,
				7.1759161949157715,
				7.175917148590088
			],
			"translation":[
				-6.762324333190918,
				5.829588890075684,
				5.285494327545166
			]
		},
		{
			"name":"\u9762\u5149.001",
			"rotation":[
				-0.2805788218975067,
				0.5816892981529236,
				-0.3129384219646454,
				0.6964069604873657
			],
			"scale":[
				7.17591667175293,
				7.1759161949157715,
				7.1759161949157715
			],
			"translation":[
				15.221935272216797,
				2.9391651153564453,
				3.736557960510254
			]
		}
	],
	"cameras":[
		{
			"name":"\u6444\u50cf\u673a",
			"perspective":{
				"aspectRatio":1,
				"yfov":0.2977799177169799,
				"zfar":1000,
				"znear":0.10000000149011612
			},
			"type":"perspective"
		}
	],
	"materials":[
		{
			"doubleSided":true,
			"name":"\u6750\u8d28.001",
			"pbrMetallicRoughness":{
				"metallicFactor":0,
				"roughnessFactor":0.5
			}
		},
		{
			"doubleSided":true,
			"name":"\u6750\u8d28.004",
			"pbrMetallicRoughness":{
				"baseColorFactor":[
					0.00029890923178754747,
					0.0027854423969984055,
					0.01131525170058012,
					1
				],
				"metallicFactor":0,
				"roughnessFactor":0.31200000643730164
			}
		},
		{
			"doubleSided":true,
			"name":"Pumpkin",
			"pbrMetallicRoughness":{
				"baseColorFactor":[
					0.8000000715255737,
					0.1973821371793747,
					0.015059796161949635,
					1
				],
				"metallicFactor":0,
				"roughnessFactor":0.5
			}
		},
		{
			"doubleSided":true,
			"name":"\u6750\u8d28.006",
			"pbrMetallicRoughness":{
				"baseColorFactor":[
					0.8000000715255737,
					0.04333067312836647,
					0.018685949966311455,
					1
				],
				"metallicFactor":0,
				"roughnessFactor":0.5
			}
		},
		{
			"doubleSided":true,
			"name":"\u6750\u8d28.005",
			"pbrMetallicRoughness":{
				"baseColorFactor":[
					0.800000011920929,
					0.800000011920929,
					0.800000011920929,
					1
				],
				"metallicFactor":0,
				"roughnessFactor":0.5
			}
		},
		{
			"doubleSided":true,
			"name":"\u6750\u8d28.003",
			"pbrMetallicRoughness":{
				"baseColorFactor":[
					0.7991023659706116,
					0.6653869152069092,
					0.5088814496994019,
					1
				],
				"metallicFactor":0,
				"roughnessFactor":0.5
			}
		},
		{
			"doubleSided":true,
			"name":"\u6750\u8d28.007",
			"pbrMetallicRoughness":{
				"baseColorFactor":[
					0,
					0,
					0,
					1
				],
				"metallicFactor":0,
				"roughnessFactor":0.35600000619888306
			}
		},
		{
			"doubleSided":true,
			"emissiveFactor":[
				1,
				0.2680010199546814,
				0.02432192675769329
			],
			"extensions":{
				"KHR_materials_emissive_strength":{
					"emissiveStrength":20
				}
			},
			"name":"\u6750\u8d28.008",
			"pbrMetallicRoughness":{
				"baseColorFactor":[
					0.800000011920929,
					0.800000011920929,
					0.800000011920929,
					1
				],
				"metallicFactor":0,
				"roughnessFactor":0.5
			}
		},
		{
			"doubleSided":true,
			"name":"Wizard-hat",
			"pbrMetallicRoughness":{
				"baseColorFactor":[
					0.08667276799678802,
					0,
					0.3063422441482544,
					1
				],
				"metallicFactor":0,
				"roughnessFactor":0.5
			}
		},
		{
			"doubleSided":true,
			"name":"Pumpkin-metal",
			"pbrMetallicRoughness":{
				"baseColorFactor":[
					0.8000000715255737,
					0.563135027885437,
					0.12127404659986496,
					1
				],
				"roughnessFactor":0.30000001192092896
			}
		}
	],
	"meshes":[
		{
			"name":"\u7acb\u65b9\u4f53",
			"primitives":[
				{
					"attributes":{
						"COLOR_0":0,
						"POSITION":1,
						"TEXCOORD_0":2,
						"NORMAL":3
					},
					"indices":4,
					"material":0
				}
			]
		},
		{
			"name":"\u7acb\u65b9\u4f53.001",
			"primitives":[
				{
					"attributes":{
						"POSITION":5,
						"TEXCOORD_0":6,
						"NORMAL":7,
						"TANGENT":8
					},
					"indices":9,
					"material":1
				}
			]
		},
		{
			"name":"\u67f1\u4f53",
			"primitives":[
				{
					"attributes":{
						"POSITION":10,
						"TEXCOORD_0":11,
						"TEXCOORD_1":12,
						"NORMAL":13
					},
					"indices":14,
					"material":2
				}
			]
		},
		{
			"name":"\u7acb\u65b9\u4f53.003",
			"primitives":[
				{
					"attributes":{
						"POSITION":15,
						"TEXCOORD_0":16,
						"NORMAL":17,
						"TANGENT":18
					},
					"indices":19,
					"material":3
				}
			]
		},
		{
			"name":"\u7acb\u65b9\u4f53.004",
			"primitives":[
				{
					"attributes":{
						"POSITION":20,
						"TEXCOORD_0":21,
						"NORMAL":22,
						"TANGENT":23
					},
					"indices":9,
					"material":4
				}
			]
		},
		{
			"name":"\u7acb\u65b9\u4f53.005",
			"primitives":[
				{
					"attributes":{
						"COLOR_0":24,
						"POSITION":25,
						"TEXCOORD_0":26,
						"NORMAL":27,
						"TANGENT":28
					},
					"indices":29,
					"material":5
				}
			]
		},
		{
			"name":"\u7acb\u65b9\u4f53.006",
			"primitives":[
				{
					"attributes":{
						"COLOR_0":30,
						"POSITION":31,
						"TEXCOORD_0":32,
						"NORMAL":33,
						"TANGENT":34
					},
					"indices":29,
					"material":5
				}
			]
		},
		{
			"name":"\u67f1\u4f53.001",
			"primitives":[
				{
					"attributes":{
						"POSITION":35,
						"TEXCOORD_0":36,
						"NORMAL":37
					},
					"indices":38,
					"material":6
				}
			]
		},
		{
			"extras":{
				"Star":true,
				"change":false,
				"points":5,
				"outer_radius":1.0,
				"innter_radius":0.5,
				"height":0.5
			},
			"name":"Star",
			"primitives":[
				{
					"attributes":{
						"POSITION":39,
						"NORMAL":40
					},
					"indices":41,
					"material":7
				}
			]
		},
		{
			"name":"\u5706\u73af",
			"primitives":[
				{
					"attributes":{
						"POSITION":42,
						"TEXCOORD_0":43,
						"NORMAL":44,
						"TANGENT":45
					},
					"indices":46,
					"material":8
				}
			]
		},
		{
			"name":"\u5706\u73af.001",
			"primitives":[
				{
					"attributes":{
						"POSITION":47,
						"TEXCOORD_0":48,
						"NORMAL":49,
						"TANGENT":50
					},
					"indices":51,
					"material":2
				}
			]
		},
		{
			"name":"\u73af\u4f53",
			"primitives":[
				{
					"attributes":{
						"POSITION":52,
						"TEXCOORD_0":53,
						"NORMAL":54,
						"TANGENT":55
					},
					"indices":56,
					"material":9
				}
			]
		}
	],
	"accessors":[
		{
			"bufferView":0,
			"componentType":5123,
			"count":1806,
			"normalized":true,
			"type":"VEC4"
		},
		{
			"bufferView":1,
			"componentType":5126,
			"count":1806,
			"max":[
				0.9997433423995972,
				1.5697722434997559,
				1.0122202634811401
			],
			"min":[
				-0.9028335213661194,
				-0.5453710556030273,
				-1.1262404918670654
			],
			"type":"VEC3"
		},
		{
			"bufferView":2,
			"componentType":5126,
			"count":1806,
			"type":"VEC2"
		},
		{
			"bufferView":3,
			"componentType":5126,
			"count":1806,
			"type":"VEC3"
		},
		{
			"bufferView":4,
			"componentType":5123,
			"count":9666,
			"type":"SCALAR"
		},
		{
			"bufferView":5,
			"componentType":5126,
			"count":250,
			"max":[
				0.8395062685012817,
				1.0343906879425049,
				0.8395062685012817
			],
			"min":[
				-4.7181501388549805,
				-0.8395062685012817,
				-6.810295104980469
			],
			"type":"VEC3"
		},
		{
			"bufferView":6,
			"componentType":5126,
			"count":250,
			"type":"VEC2"
		},
		{
			"bufferView":7,
			"componentType":5126,
			"count":250,
			"type":"VEC3"
		},
		{
			"bufferView":8,
			"componentType":5126,
			"count":250,
			"type":"VEC4"
		},
		{
			"bufferView":9,
			"componentType":5123,
			"count":1152,
			"type":"SCALAR"
		},
		{
			"bufferView":10,
			"componentType":5126,
			"count":11172,
			"max":[
				1.162731409072876,
				0.7812508940696716,
				1.162731409072876
			],
			"min":[
				-1.162731409072876,
				-0.7888658046722412,
				-1.162731409072876
			],
			"type":"VEC3"
		},
		{
			"bufferView":11,
			"componentType":5126,
			"count":11172,
			"type":"VEC2"
		},
		{
			"bufferView":12,
			"componentType":5126,
			"count":11172,
			"type":"VEC2"
		},
		{
			"bufferView":13,
			"componentType":5126,
			"count":11172,
			"type":"VEC3"
		},
		{
			"bufferView":14,
			"componentType":5123,
			"count":46326,
			"type":"SCALAR"
		},
		{
			"bufferView":15,
			"componentType":5126,
			"count":125,
			"max":[
				0.8395062685012817,
				0.8395062685012817,
				0.8395062685012817
			],
			"min":[
				-0.8395062685012817,
				-0.8395062685012817,
				-0.8395062685012817
			],
			"type":"VEC3"
		},
		{
			"bufferView":16,
			"componentType":5126,
			"count":125,
			"type":"VEC2"
		},
		{
			"bufferView":17,
			"componentType":5126,
			"count":125,
			"type":"VEC3"
		},
		{
			"bufferView":18,
			"componentType":5126,
			"count":125,
			"type":"VEC4"
		},
		{
			"bufferView":19,
			"componentType":5123,
			"count":576,
			"type":"SCALAR"
		},
		{
			"bufferView":20,
			"componentType":5126,
			"count":250,
			"max":[
				9.76282024383545,
				0.8395062685012817,
				0.8395061492919922
			],
			"min":[
				-1.0975871086120605,
				-0.8395062685012817,
				-0.8395061492919922
			],
			"type":"VEC3"
		},
		{
			"bufferView":21,
			"componentType":5126,
			"count":250,
			"type":"VEC2"
		},
		{
			"bufferView":22,
			"componentType":5126,
			"count":250,
			"type":"VEC3"
		},
		{
			"bufferView":23,
			"componentType":5126,
			"count":250,
			"type":"VEC4"
		},
		{
			"bufferView":24,
			"componentType":5123,
			"count":303,
			"normalized":true,
			"type":"VEC4"
		},
		{
			"bufferView":25,
			"componentType":5126,
			"count":303,
			"max":[
				0.9172205328941345,
				1.0455559492111206,
				4.696702003479004
			],
			"min":[
				-1.7093219757080078,
				-1.0455561876296997,
				-0.8395062685012817
			],
			"type":"VEC3"
		},
		{
			"bufferView":26,
			"componentType":5126,
			"count":303,
			"type":"VEC2"
		},
		{
			"bufferView":27,
			"componentType":5126,
			"count":303,
			"type":"VEC3"
		},
		{
			"bufferView":28,
			"componentType":5126,
			"count":303,
			"type":"VEC4"
		},
		{
			"bufferView":29,
			"componentType":5123,
			"count":1344,
			"type":"SCALAR"
		},
		{
			"bufferView":30,
			"componentType":5123,
			"count":303,
			"normalized":true,
			"type":"VEC4"
		},
		{
			"bufferView":31,
			"componentType":5126,
			"count":303,
			"max":[
				0.9172205328941345,
				1.0455559492111206,
				4.696702003479004
			],
			"min":[
				-1.7093219757080078,
				-1.0455561876296997,
				-0.8395062685012817
			],
			"type":"VEC3"
		},
		{
			"bufferView":32,
			"componentType":5126,
			"count":303,
			"type":"VEC2"
		},
		{
			"bufferView":33,
			"componentType":5126,
			"count":303,
			"type":"VEC3"
		},
		{
			"bufferView":34,
			"componentType":5126,
			"count":303,
			"type":"VEC4"
		},
		{
			"bufferView":35,
			"componentType":5126,
			"count":192,
			"max":[
				1,
				1,
				1
			],
			"min":[
				-1,
				-1,
				-1
			],
			"type":"VEC3"
		},
		{
			"bufferView":36,
			"componentType":5126,
			"count":192,
			"type":"VEC2"
		},
		{
			"bufferView":37,
			"componentType":5126,
			"count":192,
			"type":"VEC3"
		},
		{
			"bufferView":38,
			"componentType":5123,
			"count":372,
			"type":"SCALAR"
		},
		{
			"bufferView":39,
			"componentType":5126,
			"count":402,
			"max":[
				0.644370436668396,
				0.35119399428367615,
				0.736697256565094
			],
			"min":[
				-0.7746092677116394,
				-0.35119399428367615,
				-0.736697256565094
			],
			"type":"VEC3"
		},
		{
			"bufferView":40,
			"componentType":5126,
			"count":402,
			"type":"VEC3"
		},
		{
			"bufferView":41,
			"componentType":5123,
			"count":2400,
			"type":"SCALAR"
		},
		{
			"bufferView":42,
			"componentType":5126,
			"count":18306,
			"max":[
				1.464955449104309,
				1.5907251834869385,
				1.518110752105713
			],
			"min":[
				-1.5140604972839355,
				-0.12650078535079956,
				-1.4994099140167236
			],
			"type":"VEC3"
		},
		{
			"bufferView":43,
			"componentType":5126,
			"count":18306,
			"type":"VEC2"
		},
		{
			"bufferView":44,
			"componentType":5126,
			"count":18306,
			"type":"VEC3"
		},
		{
			"bufferView":45,
			"componentType":5126,
			"count":18306,
			"type":"VEC4"
		},
		{
			"bufferView":46,
			"componentType":5123,
			"count":109824,
			"type":"SCALAR"
		},
		{
			"bufferView":47,
			"componentType":5126,
			"count":256,
			"max":[
				0.528009831905365,
				0.3379904329776764,
				0.5181866884231567
			],
			"min":[
				-0.5020962357521057,
				0.07818774878978729,
				-0.5148264765739441
			],
			"type":"VEC3"
		},
		{
			"bufferView":48,
			"componentType":5126,
			"count":256,
			"type":"VEC2"
		},
		{
			"bufferView":49,
			"componentType":5126,
			"count":256,
			"type":"VEC3"
		},
		{
			"bufferView":50,
			"componentType":5126,
			"count":256,
			"type":"VEC4"
		},
		{
			"bufferView":51,
			"componentType":5123,
			"count":1536,
			"type":"SCALAR"
		},
		{
			"bufferView":52,
			"componentType":5126,
			"count":637,
			"max":[
				1.25,
				0.25,
				1.25
			],
			"min":[
				-1.25,
				-0.25,
				-1.25
			],
			"type":"VEC3"
		},
		{
			"bufferView":53,
			"componentType":5126,
			"count":637,
			"type":"VEC2"
		},
		{
			"bufferView":54,
			"componentType":5126,
			"count":637,
			"type":"VEC3"
		},
		{
			"bufferView":55,
			"componentType":5126,
			"count":637,
			"type":"VEC4"
		},
		{
			"bufferView":56,
			"componentType":5123,
			"count":3456,
			"type":"SCALAR"
		}
	],
	"bufferViews":[
		{
			"buffer":0,
			"byteLength":14448,
			"byteOffset":0,
			"target":34962
		},
		{
			"buffer":0,
			"byteLength":21672,
			"byteOffset":14448,
			"target":34962
		},
		{
			"buffer":0,
			"byteLength":14448,
			"byteOffset":36120,
			"target":34962
		},
		{
			"buffer":0,
			"byteLength":21672,
			"byteOffset":50568,
			"target":34962
		},
		{
			"buffer":0,
			"byteLength":19332,
			"byteOffset":72240,
			"target":34963
		},
		{
			"buffer":0,
			"byteLength":3000,
			"byteOffset":91572,
			"target":34962
		},
		{
			"buffer":0,
			"byteLength":2000,
			"byteOffset":94572,
			"target":34962
		},
		{
			"buffer":0,
			"byteLength":3000,
			"byteOffset":96572,
			"target":34962
		},
		{
			"buffer":0,
			"byteLength":4000,
			"byteOffset":99572,
			"target":34962
		},
		{
			"buffer":0,
			"byteLength":2304,
			"byteOffset":103572,
			"target":34963
		},
		{
			"buffer":0,
			"byteLength":134064,
			"byteOffset":105876,
			"target":34962
		},
		{
			"buffer":0,
			"byteLength":89376,
			"byteOffset":239940,
			"target":34962
		},
		{
			"buffer":0,
			"byteLength":89376,
			"byteOffset":329316,
			"target":34962
		},
		{
			"buffer":0,
			"byteLength":134064,
			"byteOffset":418692,
			"target":34962
		},
		{
			"buffer":0,
			"byteLength":92652,
			"byteOffset":552756,
			"target":34963
		},
		{
			"buffer":0,
			"byteLength":1500,
			"byteOffset":645408,
			"target":34962
		},
		{
			"buffer":0,
			"byteLength":1000,
			"byteOffset":646908,
			"target":34962
		},
		{
			"buffer":0,
			"byteLength":1500,
			"byteOffset":647908,
			"target":34962
		},
		{
			"buffer":0,
			"byteLength":2000,
			"byteOffset":649408,
			"target":34962
		},
		{
			"buffer":0,
			"byteLength":1152,
			"byteOffset":651408,
			"target":34963
		},
		{
			"buffer":0,
			"byteLength":3000,
			"byteOffset":652560,
			"target":34962
		},
		{
			"buffer":0,
			"byteLength":2000,
			"byteOffset":655560,
			"target":34962
		},
		{
			"buffer":0,
			"byteLength":3000,
			"byteOffset":657560,
			"target":34962
		},
		{
			"buffer":0,
			"byteLength":4000,
			"byteOffset":660560,
			"target":34962
		},
		{
			"buffer":0,
			"byteLength":2424,
			"byteOffset":664560,
			"target":34962
		},
		{
			"buffer":0,
			"byteLength":3636,
			"byteOffset":666984,
			"target":34962
		},
		{
			"buffer":0,
			"byteLength":2424,
			"byteOffset":670620,
			"target":34962
		},
		{
			"buffer":0,
			"byteLength":3636,
			"byteOffset":673044,
			"target":34962
		},
		{
			"buffer":0,
			"byteLength":4848,
			"byteOffset":676680,
			"target":34962
		},
		{
			"buffer":0,
			"byteLength":2688,
			"byteOffset":681528,
			"target":34963
		},
		{
			"buffer":0,
			"byteLength":2424,
			"byteOffset":684216,
			"target":34962
		},
		{
			"buffer":0,
			"byteLength":3636,
			"byteOffset":686640,
			"target":34962
		},
		{
			"buffer":0,
			"byteLength":2424,
			"byteOffset":690276,
			"target":34962
		},
		{
			"buffer":0,
			"byteLength":3636,
			"byteOffset":692700,
			"target":34962
		},
		{
			"buffer":0,
			"byteLength":4848,
			"byteOffset":696336,
			"target":34962
		},
		{
			"buffer":0,
			"byteLength":2304,
			"byteOffset":701184,
			"target":34962
		},
		{
			"buffer":0,
			"byteLength":1536,
			"byteOffset":703488,
			"target":34962
		},
		{
			"buffer":0,
			"byteLength":2304,
			"byteOffset":705024,
			"target":34962
		},
		{
			"buffer":0,
			"byteLength":744,
			"byteOffset":707328,
			"target":34963
		},
		{
			"buffer":0,
			"byteLength":4824,
			"byteOffset":708072,
			"target":34962
		},
		{
			"buffer":0,
			"byteLength":4824,
			"byteOffset":712896,
			"target":34962
		},
		{
			"buffer":0,
			"byteLength":4800,
			"byteOffset":717720,
			"target":34963
		},
		{
			"buffer":0,
			"byteLength":219672,
			"byteOffset":722520,
			"target":34962
		},
		{
			"buffer":0,
			"byteLength":146448,
			"byteOffset":942192,
			"target":34962
		},
		{
			"buffer":0,
			"byteLength":219672,
			"byteOffset":1088640,
			"target":34962
		},
		{
			"buffer":0,
			"byteLength":292896,
			"byteOffset":1308312,
			"target":34962
		},
		{
			"buffer":0,
			"byteLength":219648,
			"byteOffset":1601208,
			"target":34963
		},
		{
			"buffer":0,
			"byteLength":3072,
			"byteOffset":1820856,
			"target":34962
		},
		{
			"buffer":0,
			"byteLength":2048,
			"byteOffset":1823928,
			"target":34962
		},
		{
			"buffer":0,
			"byteLength":3072,
			"byteOffset":1825976,
			"target":34962
		},
		{
			"buffer":0,
			"byteLength":4096,
			"byteOffset":1829048,
			"target":34962
		},
		{
			"buffer":0,
			"byteLength":3072,
			"byteOffset":1833144,
			"target":34963
		},
		{
			"buffer":0,
			"byteLength":7644,
			"byteOffset":1836216,
			"target":34962
		},
		{
			"buffer":0,
			"byteLength":5096,
			"byteOffset":1843860,
			"target":34962
		},
		{
			"buffer":0,
			"byteLength":7644,
			"byteOffset":1848956,
			"target":34962
		},
		{
			"buffer":0,
			"byteLength":10192,
			"byteOffset":1856600,
			"target":34962
		},
		{
			"buffer":0,
			"byteLength":6912,
			"byteOffset":1866792,
			"target":34963
		}
	],
	"buffers":[
		{
			"byteLength":1873704,
			"uri":"ghost.bin"
		}
	]
}
